<svg version="1.1" id="Layer_1" xmlns="http://www.w3.org/2000/svg" xmlns:xlink="http://www.w3.org/1999/xlink" x="0px" y="0px"
	 width="100%" viewBox="0 0 512 512" enable-background="new 0 0 512 512" xml:space="preserve">
<path fill="#805AD5" opacity="1.000000" stroke="none" 
	d="
M0.999999,476.000000 
	C1.000000,329.975922 1.000000,183.951843 1.267754,37.803986 
	C1.915162,37.361389 2.498590,37.116573 2.645125,36.713093 
	C8.746799,19.912374 19.688269,8.082818 37.153671,2.846629 
	C37.581841,2.718264 37.724293,1.636889 38.000000,1.000000 
	C183.690750,1.000000 329.381500,1.000000 475.195679,1.276215 
	C475.782837,1.999023 476.172913,2.693553 476.720886,2.856265 
	C494.183990,8.041416 505.189545,19.733028 511.073059,36.683983 
	C511.277985,37.274471 512.338318,37.568039 513.000000,37.999996 
	C513.000000,183.690750 513.000000,329.381500 512.724060,475.195709 
	C512.001404,475.782898 511.313660,476.171722 511.142883,476.721191 
	C505.775421,493.992401 494.346130,505.248901 477.336548,511.070557 
	C476.740692,511.274475 476.438843,512.337402 476.000000,513.000000 
	C330.309265,513.000000 184.618515,513.000000 38.804207,512.723816 
	C38.356865,512.072144 38.100796,511.475891 37.699596,511.352814 
	C20.045216,505.937439 8.351256,494.545319 2.847070,476.846222 
	C2.712792,476.414429 1.636781,476.275513 0.999999,476.000000 
M296.610748,271.096252 
	C298.402740,269.883911 300.247284,268.741913 301.978851,267.448669 
	C331.447388,245.439789 336.173462,200.625778 311.564423,174.632599 
	C297.947662,160.249954 280.398438,153.371231 261.156372,152.230713 
	C242.922119,151.149918 224.561020,152.018097 206.261200,152.340012 
	C200.029587,152.449631 193.814606,153.504333 187.259323,154.160492 
	C187.259323,156.430817 187.259338,158.075439 187.259323,159.720062 
	C187.259308,225.687302 187.259064,291.654541 187.261032,357.621765 
	C187.261078,358.787537 187.025650,360.041870 187.381027,361.092133 
	C187.686371,361.994507 188.669006,363.323669 189.371918,363.335999 
	C198.116776,363.489258 206.865234,363.436218 216.074402,363.436218 
	C216.074402,336.699799 216.074402,310.768890 216.074402,285.003662 
	C227.017975,285.003662 237.491394,285.364166 247.930817,284.921844 
	C264.943726,284.200958 281.191101,280.314453 296.610748,271.096252 
z"/>
<path fill="#000000" opacity="1.000000" stroke="none" 
	d="
M476.468658,513.000000 
	C476.438843,512.337402 476.740692,511.274475 477.336548,511.070557 
	C494.346130,505.248901 505.775421,493.992401 511.142883,476.721191 
	C511.313660,476.171722 512.001404,475.782898 512.724060,475.659607 
	C513.000000,488.259949 513.000000,500.519897 513.000000,513.000000 
	C500.980011,513.000000 488.958649,513.000000 476.468658,513.000000 
z"/>
<path fill="#000000" opacity="1.000000" stroke="none" 
	d="
M513.000000,37.531338 
	C512.338318,37.568039 511.277985,37.274471 511.073059,36.683983 
	C505.189545,19.733028 494.183990,8.041416 476.720886,2.856265 
	C476.172913,2.693553 475.782837,1.999023 475.659576,1.276215 
	C488.259949,1.000000 500.519897,1.000000 513.000000,1.000000 
	C513.000000,13.020000 513.000000,25.041342 513.000000,37.531338 
z"/>
<path fill="#000000" opacity="1.000000" stroke="none" 
	d="
M0.999999,476.468658 
	C1.636781,476.275513 2.712792,476.414429 2.847070,476.846222 
	C8.351256,494.545319 20.045216,505.937439 37.699596,511.352814 
	C38.100796,511.475891 38.356865,512.072144 38.340321,512.723816 
	C25.740049,513.000000 13.480098,513.000000 1.000000,513.000000 
	C1.000000,500.980011 1.000000,488.958649 0.999999,476.468658 
z"/>
<path fill="#000000" opacity="1.000000" stroke="none" 
	d="
M37.531342,1.000000 
	C37.724293,1.636889 37.581841,2.718264 37.153671,2.846629 
	C19.688269,8.082818 8.746799,19.912374 2.645125,36.713093 
	C2.498590,37.116573 1.915162,37.361389 1.267754,37.340103 
	C1.000000,25.072384 1.000000,13.144766 1.000000,1.000000 
	C13.020023,1.000000 25.041353,1.000000 37.531342,1.000000 
z"/>
<path fill="#FDFDFE" opacity="1.000000" stroke="none" 
	d="
M296.301971,271.287994 
	C281.191101,280.314453 264.943726,284.200958 247.930817,284.921844 
	C237.491394,285.364166 227.017975,285.003662 216.074402,285.003662 
	C216.074402,310.768890 216.074402,336.699799 216.074402,363.436218 
	C206.865234,363.436218 198.116776,363.489258 189.371918,363.335999 
	C188.669006,363.323669 187.686371,361.994507 187.381027,361.092133 
	C187.025650,360.041870 187.261078,358.787537 187.261032,357.621765 
	C187.259064,291.654541 187.259308,225.687302 187.259323,159.720062 
	C187.259338,158.075439 187.259323,156.430817 187.259323,154.160492 
	C193.814606,153.504333 200.029587,152.449631 206.261200,152.340012 
	C224.561020,152.018097 242.922119,151.149918 261.156372,152.230713 
	C280.398438,153.371231 297.947662,160.249954 311.564423,174.632599 
	C336.173462,200.625778 331.447388,245.439789 301.978851,267.448669 
	C300.247284,268.741913 298.402740,269.883911 296.301971,271.287994 
M215.916992,232.499985 
	C215.916992,241.603943 215.916992,250.707901 215.916992,260.439056 
	C225.258072,260.790314 233.944321,261.830688 242.520477,261.248779 
	C252.064789,260.601196 261.905609,259.689178 270.913971,256.742218 
	C289.650238,250.612885 299.673645,234.757034 298.897888,215.275055 
	C298.181213,197.276505 287.110443,183.563171 268.515320,178.250488 
	C251.363846,173.350235 233.922699,175.097153 215.916992,176.293808 
	C215.916992,194.945984 215.916992,213.222977 215.916992,232.499985 
z"/>
<path fill="#815BD5" opacity="1.000000" stroke="none" 
	d="
M215.916992,231.999969 
	C215.916992,213.222977 215.916992,194.945984 215.916992,176.293808 
	C233.922699,175.097153 251.363846,173.350235 268.515320,178.250488 
	C287.110443,183.563171 298.181213,197.276505 298.897888,215.275055 
	C299.673645,234.757034 289.650238,250.612885 270.913971,256.742218 
	C261.905609,259.689178 252.064789,260.601196 242.520477,261.248779 
	C233.944321,261.830688 225.258072,260.790314 215.916992,260.439056 
	C215.916992,250.707901 215.916992,241.603943 215.916992,231.999969 
z"/>
</svg>